<?xml version="1.0" encoding="UTF-8"?>
<!DOCTYPE svg PUBLIC "-//W3C//DTD SVG 1.1//EN" "http://www.w3.org/Graphics/SVG/1.1/DTD/svg11.dtd">
<!-- Creator: CorelDRAW Home & Student X7 -->
<svg xmlns="http://www.w3.org/2000/svg" xml:space="preserve" width="169.322mm" height="26.3096mm" version="1.1" style="shape-rendering:geometricPrecision; text-rendering:geometricPrecision; image-rendering:optimizeQuality; fill-rule:evenodd; clip-rule:evenodd"
viewBox="0 0 16932 2631"
 xmlns:xlink="http://www.w3.org/1999/xlink">
 <defs>
  <style type="text/css">
   <![CDATA[
    .fil0 {fill:#E51A4B}
    .fil2 {fill:#00A0E3}
    .fil1 {fill:#FEFEFE;fill-rule:nonzero}
   ]]>
  </style>
 </defs>
 <g id="Layer_x0020_1">
  <metadata id="CorelCorpID_0Corel-Layer"/>
  <g id="_792527840">
   <rect class="fil0" width="10653" height="2631"/>
   <path class="fil1" d="M730 1922l0 -1214 245 0 0 539 495 -539 330 0 -457 473 482 741 -317 0 -334 -570 -199 203 0 367 -245 0zm1160 -395l238 -23c14,80 43,139 88,176 43,38 102,57 177,57 79,0 139,-17 178,-51 41,-33 61,-72 61,-117 0,-29 -9,-53 -26,-73 -16,-20 -46,-38 -88,-52 -29,-11 -94,-28 -196,-54 -132,-32 -224,-72 -277,-120 -74,-66 -112,-148 -112,-244 0,-62 18,-120 53,-173 35,-54 86,-95 152,-123 66,-28 145,-43 238,-43 153,0 267,34 345,101 77,66 117,156 121,267l-245 11c-11,-63 -33,-107 -68,-135 -34,-27 -86,-41 -155,-41 -71,0 -127,15 -167,44 -26,19 -39,44 -39,75 0,29 12,54 36,74 31,26 106,53 226,81 119,29 207,58 264,88 57,30 102,71 134,123 33,52 49,117 49,193 0,70 -20,135 -58,196 -39,61 -94,106 -164,135 -71,30 -159,45 -264,45 -154,0 -272,-36 -354,-107 -82,-71 -132,-174 -147,-310zm1194 395l0 -1214 245 0 0 478 480 0 0 -478 245 0 0 1214 -245 0 0 -531 -480 0 0 531 -245 0zm2318 0l-266 0 -106 -276 -486 0 -100 276 -260 0 473 -1214 259 0 486 1214zm-451 -480l-167 -451 -164 451 331 0zm578 480l0 -1214 367 0 220 828 218 -828 367 0 0 1214 -227 0 0 -956 -241 956 -236 0 -240 -956 0 956 -228 0zm2511 0l-267 0 -106 -276 -485 0 -100 276 -260 0 472 -1214 260 0 486 1214zm-452 -480l-167 -451 -164 451 331 0zm729 480l0 -1008 -360 0 0 -206 965 0 0 206 -360 0 0 1008 -245 0zm1732 0l-267 0 -106 -276 -485 0 -100 276 -260 0 472 -1214 260 0 486 1214zm-452 -480l-167 -451 -164 451 331 0z"/>
   <rect class="fil2" x="10653" width="6279" height="2631"/>
   <path class="fil1" d="M11192 709l245 0 0 657c0,104 3,172 9,203 10,50 36,90 75,119 39,31 93,46 162,46 69,0 122,-14 157,-43 36,-28 57,-63 64,-105 7,-41 11,-110 11,-206l0 -671 245 0 0 637c0,146 -7,249 -20,309 -13,60 -38,111 -73,152 -36,42 -84,75 -143,99 -60,25 -138,37 -234,37 -116,0 -204,-13 -264,-40 -59,-27 -107,-62 -141,-104 -35,-43 -58,-88 -69,-135 -16,-69 -24,-172 -24,-308l0 -647zm1791 767l0 -204 528 0 0 483c-51,50 -126,94 -223,132 -98,37 -196,56 -296,56 -127,0 -238,-26 -332,-80 -94,-53 -165,-129 -213,-228 -47,-99 -71,-207 -71,-324 0,-126 26,-238 79,-337 53,-98 131,-173 233,-226 78,-40 175,-60 291,-60 150,0 268,32 353,95 85,63 139,150 163,262l-243 45c-17,-59 -49,-106 -97,-141 -47,-34 -106,-52 -176,-52 -107,0 -192,34 -256,102 -63,68 -94,169 -94,302 0,144 31,253 96,325 63,72 147,108 251,108 52,0 103,-10 155,-31 51,-20 96,-44 133,-73l0 -154 -281 0zm1262 167l232 38c-30,85 -77,150 -142,195 -64,44 -144,66 -241,66 -153,0 -266,-49 -339,-150 -58,-80 -87,-181 -87,-303 0,-145 38,-260 114,-342 76,-83 172,-124 289,-124 131,0 234,43 310,130 75,86 111,219 108,397l-583 0c2,69 20,123 56,161 36,38 81,57 135,57 36,0 67,-9 91,-29 25,-20 44,-52 57,-96zm13 -236c-2,-67 -19,-118 -52,-153 -33,-35 -74,-53 -121,-53 -51,0 -93,19 -126,56 -33,37 -49,87 -49,150l348 0zm824 -364l0 186 -159 0 0 354c0,72 1,114 5,126 3,11 9,21 20,29 11,8 24,12 40,12 21,0 52,-8 93,-23l20 181c-54,23 -115,34 -184,34 -42,0 -80,-7 -113,-21 -34,-14 -58,-32 -74,-54 -16,-23 -27,-53 -33,-91 -5,-27 -7,-82 -7,-164l0 -383 -107 0 0 -186 107 0 0 -175 233 -135 0 310 159 0zm162 -119l0 -215 232 0 0 215 -232 0zm0 998l0 -879 232 0 0 879 -232 0zm1271 0l-233 0 0 -448c0,-95 -5,-157 -15,-185 -10,-27 -26,-49 -49,-65 -22,-15 -49,-23 -80,-23 -41,0 -77,11 -109,33 -32,23 -54,52 -65,88 -12,37 -18,104 -18,202l0 398 -233 0 0 -879 216 0 0 129c77,-99 174,-149 290,-149 51,0 98,9 141,28 42,18 74,42 96,71 22,29 37,61 46,98 8,36 13,88 13,156l0 546z"/>
  </g>
 </g>
</svg>
